<svg xmlns="http://www.w3.org/2000/svg" width="512" height="512" viewBox="0 0 512 512" version="1.1">
	<path d="M 165 68.040 C 147.459 69.976, 130.793 78.086, 117.939 90.939 C 104.511 104.367, 97.039 120.253, 94.932 139.849 C 94.258 146.127, 94.009 189.345, 94.221 263.500 C 94.547 377.500, 94.547 377.500, 96.760 385.500 C 104.626 413.942, 126.039 435.356, 154.500 443.245 C 162.466 445.453, 162.853 445.463, 246.500 445.481 C 330.108 445.500, 330.541 445.490, 339.234 443.273 C 369.300 435.605, 392.118 411.516, 398.419 380.792 C 399.775 374.180, 400 362.722, 400 300.172 L 400 227.260 404.576 226.744 C 407.781 226.383, 410.055 225.370, 412.165 223.364 C 417.120 218.655, 418.329 215.407, 417.677 208.555 C 416.933 200.731, 410.262 179.968, 404.510 167.575 C 400.221 158.334, 400 157.420, 400 148.887 C 400 125.450, 390.915 104.456, 373.956 88.700 C 364.537 79.950, 352.049 73.027, 339.934 69.838 C 331.596 67.644, 330.594 67.616, 252 67.415 C 208.275 67.303, 169.125 67.584, 165 68.040 M 163.103 101.547 C 151.593 104.044, 139.995 112.829, 133.232 124.174 C 126.777 135.003, 126.922 131.729, 127.231 259.802 C 127.547 390.622, 126.844 379.768, 135.837 392.574 C 141.343 400.414, 149.745 406.918, 158.784 410.338 C 164.443 412.478, 165.293 412.503, 243.650 412.784 C 331.280 413.099, 331.871 413.063, 342.804 406.845 C 349.826 402.851, 357.609 395.041, 361.223 388.361 C 364.313 382.650, 366.963 372.515, 366.985 366.327 C 367.003 361.242, 364.546 358.048, 354.439 350.016 C 340.536 338.967, 318.293 329.947, 297.500 326.926 C 285.805 325.227, 262.906 325.215, 251.500 326.902 C 221.923 331.278, 195.163 345.115, 180.726 363.498 C 173.348 372.893, 165.618 375.299, 157.530 370.718 C 149.741 366.307, 146.792 357.456, 150.503 349.634 C 153.954 342.363, 169.912 326.494, 182.052 318.263 C 195.786 308.951, 221.171 298.989, 239.888 295.566 C 259.079 292.057, 289.941 292.013, 308.575 295.469 C 326.420 298.778, 352.813 308.746, 363.071 316.051 C 364.577 317.123, 366.077 318, 366.404 318 C 366.732 318, 367 284.131, 367 242.737 C 367 167.473, 367 167.473, 363.343 161.987 C 361.332 158.969, 355.370 152.169, 350.093 146.877 C 341.492 138.249, 334.816 133.250, 320.749 124.905 C 318.104 123.336, 315.708 120.905, 314.688 118.754 C 312.603 114.361, 312.520 107.444, 314.506 103.636 C 315.328 102.060, 316 100.598, 316 100.386 C 316 100.174, 283.038 100.036, 242.750 100.079 C 184.246 100.143, 168.212 100.438, 163.103 101.547 M 222.500 141.924 C 218.650 142.901, 213.190 144.605, 210.366 145.710 C 203.960 148.217, 191.120 157.018, 186.652 161.964 C 163.286 187.827, 160.651 223.416, 180.025 251.442 C 182.892 255.589, 186.973 260.550, 189.096 262.468 C 196.151 268.842, 206.499 274.993, 215.552 278.194 C 223.795 281.109, 225.525 281.362, 237.500 281.407 C 254.677 281.472, 264.263 278.647, 277.888 269.506 C 291.885 260.114, 301.035 247.355, 306.576 229.500 C 307.962 225.033, 308.445 220.305, 308.469 211 C 308.497 199.860, 308.190 197.575, 305.648 190 C 299.057 170.359, 286.133 155.415, 268.430 146.967 C 254.580 140.356, 236.497 138.371, 222.500 141.924 M 228.746 174.022 C 218.179 176.692, 208.094 185.208, 203.310 195.500 C 200.871 200.746, 200.522 202.694, 200.530 211 C 200.537 219.276, 200.900 221.287, 203.341 226.605 C 206.887 234.330, 214.611 242.025, 222.500 245.691 C 227.745 248.129, 229.695 248.478, 238 248.470 C 246.276 248.463, 248.287 248.100, 253.605 245.659 C 261.330 242.113, 269.025 234.389, 272.691 226.500 C 275.129 221.255, 275.478 219.305, 275.470 211 C 275.463 202.724, 275.100 200.713, 272.659 195.395 C 269.127 187.700, 261.368 179.949, 253.695 176.450 C 247.224 173.499, 235.377 172.346, 228.746 174.022" stroke="none" fill="currentColor" fill-rule="evenodd"/>
</svg>